<svg height="70" viewBox="0 0 701 171" fill="none" xmlns="http://www.w3.org/2000/svg">
<mask id="path-1-outside-1_127_58" maskUnits="userSpaceOnUse" x="0" y="0" width="426" height="171" fill="black">
<rect fill="white" width="426" height="171"/>
<path d="M382.888 9H43.1122C38.1749 26.623 19.7723 37.0366 9 39.4398V131.961C9 131.961 35.9307 138.77 43.1122 162H382.888C382.888 162 389.172 139.971 417 132.206V40.4862C417 40.4862 388.723 31.0288 382.888 9Z"/>
</mask>
<path d="M43.1122 9V0H36.2871L34.4459 6.57203L43.1122 9ZM382.888 9L391.588 6.69555L389.814 0H382.888V9ZM417 40.4862H426V34.0062L419.855 31.9509L417 40.4862ZM417 132.206L419.419 140.875L426 139.039V132.206H417ZM382.888 162V171H389.68L391.543 164.469L382.888 162ZM43.1122 162L34.5137 164.658L36.4742 171H43.1122V162ZM9 131.961H0V138.968L6.79394 140.686L9 131.961ZM9 39.4398L7.0404 30.6557L0 32.2263V39.4398H9ZM43.1122 18H382.888V0H43.1122V18ZM374.188 11.3044C377.94 25.469 388.65 34.921 397.194 40.5283C401.587 43.411 405.745 45.5016 408.805 46.8751C410.343 47.5653 411.624 48.0835 412.544 48.4374C413.005 48.6146 413.377 48.7512 413.648 48.8481C413.783 48.8965 413.893 48.9352 413.977 48.964C414.019 48.9784 414.054 48.9904 414.082 49C414.096 49.0048 414.108 49.009 414.119 49.0125C414.124 49.0143 414.129 49.016 414.133 49.0174C414.136 49.0182 414.139 49.0192 414.14 49.0196C414.143 49.0205 414.145 49.0215 417 40.4862C419.855 31.9509 419.857 31.9517 419.86 31.9526C419.86 31.9528 419.863 31.9536 419.864 31.954C419.867 31.9549 419.869 31.9557 419.871 31.9564C419.875 31.9576 419.877 31.9583 419.877 31.9585C419.878 31.9588 419.872 31.9569 419.861 31.9527C419.837 31.9445 419.787 31.9273 419.714 31.9011C419.568 31.8487 419.327 31.7606 419.003 31.6361C418.354 31.3868 417.38 30.9941 416.176 30.4534C413.752 29.3652 410.476 27.7147 407.07 25.4795C400.017 20.8509 393.671 14.5598 391.588 6.69555L374.188 11.3044ZM408 40.4862V132.206H426V40.4862H408ZM414.581 123.537C398.563 128.007 388.474 136.702 382.41 144.482C379.407 148.335 377.415 151.927 376.154 154.62C375.522 155.969 375.069 157.102 374.761 157.943C374.607 158.364 374.489 158.713 374.402 158.98C374.359 159.114 374.324 159.227 374.296 159.32C374.282 159.366 374.269 159.407 374.259 159.442C374.254 159.459 374.249 159.476 374.245 159.491C374.243 159.498 374.24 159.505 374.239 159.512C374.238 159.515 374.236 159.52 374.236 159.522C374.234 159.527 374.233 159.531 382.888 162C391.543 164.469 391.541 164.473 391.54 164.478C391.54 164.479 391.538 164.483 391.538 164.486C391.536 164.491 391.535 164.497 391.533 164.501C391.53 164.511 391.528 164.519 391.526 164.526C391.522 164.54 391.519 164.549 391.518 164.554C391.515 164.562 391.519 164.551 391.528 164.521C391.547 164.462 391.591 164.33 391.663 164.134C391.808 163.739 392.063 163.091 392.455 162.253C393.242 160.573 394.56 158.173 396.606 155.548C400.641 150.372 407.609 144.17 419.419 140.875L414.581 123.537ZM382.888 153H43.1122V171H382.888V153ZM51.7107 159.342C47.2211 144.819 36.6707 135.789 28.0141 130.564C23.6329 127.919 19.5313 126.119 16.515 124.974C14.9995 124.398 13.7375 123.98 12.8248 123.699C12.368 123.558 11.997 123.45 11.7237 123.374C11.5869 123.336 11.4745 123.306 11.3878 123.283C11.3444 123.271 11.3075 123.261 11.2771 123.254C11.262 123.25 11.2484 123.246 11.2366 123.243C11.2307 123.242 11.2251 123.24 11.2201 123.239C11.2175 123.238 11.214 123.237 11.2127 123.237C11.2093 123.236 11.2061 123.235 9 131.961C6.79394 140.686 6.79086 140.685 6.78787 140.685C6.78701 140.684 6.78412 140.684 6.7824 140.683C6.77895 140.682 6.77589 140.682 6.77323 140.681C6.76791 140.68 6.76416 140.679 6.76196 140.678C6.75756 140.677 6.75935 140.677 6.76717 140.679C6.78281 140.684 6.82246 140.694 6.88474 140.712C7.00942 140.746 7.22402 140.808 7.51756 140.899C8.10578 141.08 9.00383 141.376 10.1252 141.801C12.3829 142.659 15.4628 144.013 18.7119 145.974C25.3161 149.961 31.8218 155.95 34.5137 164.658L51.7107 159.342ZM18 131.961V39.4398H0V131.961H18ZM10.9596 48.2239C17.7216 46.7154 26.2204 42.9044 33.7704 37.031C41.3601 31.1266 48.6435 22.618 51.7785 11.428L34.4459 6.57203C32.6436 13.0051 28.2571 18.5147 22.718 22.8237C17.1393 27.1637 11.0507 29.7611 7.0404 30.6557L10.9596 48.2239Z" fill="#EDEDED" mask="url(#path-1-outside-1_127_58)"/>
<path fill-rule="evenodd" clip-rule="evenodd" d="M48.9417 15.4518H377.058C382.693 35.6891 410 44.3773 410 44.3773V128.638C383.126 135.772 377.058 156.009 377.058 156.009H48.9417C42.0066 134.668 16 128.413 16 128.413V43.416C26.4026 41.2083 44.1738 31.6416 48.9417 15.4518ZM49.9688 49.1818V119H82.8324C87.9006 119 92.2642 118.148 95.9233 116.443C99.5824 114.739 102.401 112.398 104.378 109.42C106.378 106.443 107.378 103.045 107.378 99.2272C107.378 95.9318 106.651 93.0682 105.196 90.6363C103.741 88.1818 101.787 86.2613 99.3324 84.875C96.8778 83.4659 94.1506 82.7045 91.1506 82.5909V81.9091C93.8551 81.3636 96.2188 80.3863 98.2415 78.9772C100.264 77.5454 101.832 75.7727 102.946 73.6591C104.082 71.5454 104.651 69.2045 104.651 66.6363C104.651 63.0909 103.719 60.0113 101.855 57.3977C100.014 54.7841 97.2756 52.7613 93.6392 51.3295C90.0256 49.8977 85.5597 49.1818 80.2415 49.1818H49.9688ZM77.7869 103.864H68.9233V89.1363H78.0597C79.9915 89.1363 81.6392 89.4318 83.0028 90.0227C84.3892 90.6136 85.4574 91.4772 86.2074 92.6136C86.9574 93.75 87.3324 95.1363 87.3324 96.7727C87.3324 99.1136 86.5369 100.886 84.946 102.091C83.3551 103.273 80.9688 103.864 77.7869 103.864ZM76.696 77.4091H68.9233V64.0454H76.9688C79.3324 64.0454 81.2869 64.625 82.8324 65.7841C84.3778 66.9204 85.1506 68.5682 85.1506 70.7272C85.1506 72.1591 84.7869 73.375 84.0597 74.375C83.3551 75.3522 82.3665 76.1022 81.0938 76.625C79.821 77.1477 78.3551 77.4091 76.696 77.4091ZM114.094 49.1818V119H161.276V103.727H133.048V49.1818H114.094ZM229.321 103.761C232.344 98.4204 233.855 91.8636 233.855 84.0909C233.855 76.3182 232.344 69.7727 229.321 64.4545C226.298 59.1136 222.219 55.0795 217.082 52.3522C211.946 49.6022 206.219 48.2272 199.901 48.2272C193.537 48.2272 187.787 49.6022 182.651 52.3522C177.537 55.0795 173.469 59.1136 170.446 64.4545C167.446 69.7727 165.946 76.3182 165.946 84.0909C165.946 91.8182 167.446 98.3522 170.446 103.693C173.469 109.011 177.537 113.057 182.651 115.83C187.787 118.58 193.537 119.955 199.901 119.955C206.219 119.955 211.946 118.591 217.082 115.864C222.219 113.114 226.298 109.08 229.321 103.761ZM212.685 73.5227C213.798 76.3863 214.355 79.9091 214.355 84.0909C214.355 88.2727 213.798 91.8068 212.685 94.6932C211.594 97.5568 209.969 99.7386 207.81 101.239C205.673 102.716 203.037 103.455 199.901 103.455C196.764 103.455 194.116 102.716 191.957 101.239C189.821 99.7386 188.196 97.5568 187.082 94.6932C185.991 91.8068 185.446 88.2727 185.446 84.0909C185.446 79.9091 185.991 76.3863 187.082 73.5227C188.196 70.6363 189.821 68.4545 191.957 66.9772C194.116 65.4772 196.764 64.7272 199.901 64.7272C203.037 64.7272 205.673 65.4772 207.81 66.9772C209.969 68.4545 211.594 70.6363 212.685 73.5227ZM288.58 75.3636H307.807C307.443 71.0227 306.409 67.1704 304.705 63.8068C303 60.4432 300.75 57.6136 297.955 55.3182C295.159 53 291.909 51.2386 288.205 50.0341C284.5 48.8295 280.443 48.2272 276.034 48.2272C269.761 48.2272 264.08 49.6022 258.989 52.3522C253.898 55.0795 249.852 59.1136 246.852 64.4545C243.852 69.7727 242.352 76.3182 242.352 84.0909C242.352 91.8182 243.818 98.3522 246.75 103.693C249.705 109.034 253.716 113.08 258.784 115.83C263.875 118.58 269.625 119.955 276.034 119.955C281.148 119.955 285.636 119.17 289.5 117.602C293.364 116.034 296.602 113.966 299.216 111.398C301.852 108.807 303.886 105.989 305.318 102.943C306.75 99.875 307.58 96.8636 307.807 93.9091L288.58 93.7727C288.352 95.2727 287.909 96.625 287.25 97.8295C286.614 99.0113 285.784 100.023 284.761 100.864C283.739 101.705 282.534 102.352 281.148 102.807C279.761 103.239 278.193 103.455 276.443 103.455C273.375 103.455 270.75 102.739 268.568 101.307C266.386 99.8522 264.716 97.6932 263.557 94.8295C262.42 91.9432 261.852 88.3636 261.852 84.0909C261.852 80.0454 262.409 76.5795 263.523 73.6932C264.659 70.8068 266.318 68.5909 268.5 67.0454C270.705 65.5 273.398 64.7272 276.58 64.7272C278.398 64.7272 280.023 64.9886 281.455 65.5113C282.886 66.0113 284.102 66.7386 285.102 67.6932C286.125 68.625 286.92 69.7386 287.489 71.0341C288.08 72.3295 288.443 73.7727 288.58 75.3636ZM335.361 49.1818H316.406V119H335.361V101L341.634 92.8182L357.315 119H379.952L355.815 80.2727L379.406 49.1818H357.315L336.315 77.4091H335.361V49.1818Z" fill="#EDEDED"/>
<path d="M449.578 120V50.1818H479.714C484.896 50.1818 489.43 51.2045 493.317 53.25C497.203 55.2955 500.226 58.1705 502.385 61.875C504.544 65.5795 505.624 69.9091 505.624 74.8636C505.624 79.8636 504.51 84.1932 502.283 87.8523C500.078 91.5114 496.976 94.3295 492.976 96.3068C488.999 98.2841 484.351 99.2727 479.033 99.2727H461.033V84.5455H475.214C477.442 84.5455 479.339 84.1591 480.908 83.3864C482.499 82.5909 483.714 81.4659 484.555 80.0114C485.419 78.5568 485.851 76.8409 485.851 74.8636C485.851 72.8636 485.419 71.1591 484.555 69.75C483.714 68.3182 482.499 67.2273 480.908 66.4773C479.339 65.7045 477.442 65.3182 475.214 65.3182H468.533V120H449.578ZM521.996 120H501.541L524.587 50.1818H550.496L573.541 120H553.087L537.814 69.4091H537.268L521.996 120ZM518.178 92.4545H556.632V106.636H518.178V92.4545ZM615.183 72C615.001 69.7273 614.149 67.9545 612.626 66.6818C611.126 65.4091 608.842 64.7727 605.774 64.7727C603.82 64.7727 602.217 65.0114 600.967 65.4886C599.74 65.9432 598.831 66.5682 598.24 67.3636C597.649 68.1591 597.342 69.0682 597.32 70.0909C597.274 70.9318 597.422 71.6932 597.763 72.375C598.126 73.0341 598.695 73.6364 599.467 74.1818C600.24 74.7045 601.229 75.1818 602.433 75.6136C603.638 76.0455 605.07 76.4318 606.729 76.7727L612.456 78C616.32 78.8182 619.626 79.8977 622.376 81.2386C625.126 82.5795 627.376 84.1591 629.126 85.9773C630.876 87.7727 632.161 89.7955 632.979 92.0455C633.82 94.2955 634.251 96.75 634.274 99.4091C634.251 104 633.104 107.886 630.831 111.068C628.558 114.25 625.308 116.67 621.081 118.33C616.876 119.989 611.82 120.818 605.911 120.818C599.842 120.818 594.547 119.92 590.024 118.125C585.524 116.33 582.024 113.568 579.524 109.841C577.047 106.091 575.797 101.295 575.774 95.4545H593.774C593.888 97.5909 594.422 99.3864 595.376 100.841C596.331 102.295 597.672 103.398 599.399 104.148C601.149 104.898 603.229 105.273 605.638 105.273C607.661 105.273 609.354 105.023 610.717 104.523C612.081 104.023 613.115 103.33 613.82 102.443C614.524 101.557 614.888 100.545 614.911 99.4091C614.888 98.3409 614.536 97.4091 613.854 96.6136C613.195 95.7955 612.104 95.0682 610.581 94.4318C609.058 93.7727 607.001 93.1591 604.411 92.5909L597.456 91.0909C591.274 89.75 586.399 87.5114 582.831 84.375C579.286 81.2159 577.524 76.9091 577.547 71.4545C577.524 67.0227 578.706 63.1477 581.092 59.8295C583.501 56.4886 586.831 53.8864 591.081 52.0227C595.354 50.1591 600.251 49.2273 605.774 49.2273C611.411 49.2273 616.286 50.1705 620.399 52.0568C624.513 53.9432 627.683 56.6023 629.911 60.0341C632.161 63.4432 633.297 67.4318 633.32 72H615.183ZM679.121 72C678.939 69.7273 678.087 67.9545 676.564 66.6818C675.064 65.4091 672.78 64.7727 669.712 64.7727C667.757 64.7727 666.155 65.0114 664.905 65.4886C663.678 65.9432 662.768 66.5682 662.178 67.3636C661.587 68.1591 661.28 69.0682 661.257 70.0909C661.212 70.9318 661.359 71.6932 661.7 72.375C662.064 73.0341 662.632 73.6364 663.405 74.1818C664.178 74.7045 665.166 75.1818 666.371 75.6136C667.575 76.0455 669.007 76.4318 670.666 76.7727L676.393 78C680.257 78.8182 683.564 79.8977 686.314 81.2386C689.064 82.5795 691.314 84.1591 693.064 85.9773C694.814 87.7727 696.098 89.7955 696.916 92.0455C697.757 94.2955 698.189 96.75 698.212 99.4091C698.189 104 697.041 107.886 694.768 111.068C692.496 114.25 689.246 116.67 685.018 118.33C680.814 119.989 675.757 120.818 669.848 120.818C663.78 120.818 658.484 119.92 653.962 118.125C649.462 116.33 645.962 113.568 643.462 109.841C640.984 106.091 639.734 101.295 639.712 95.4545H657.712C657.825 97.5909 658.359 99.3864 659.314 100.841C660.268 102.295 661.609 103.398 663.337 104.148C665.087 104.898 667.166 105.273 669.575 105.273C671.598 105.273 673.291 105.023 674.655 104.523C676.018 104.023 677.053 103.33 677.757 102.443C678.462 101.557 678.825 100.545 678.848 99.4091C678.825 98.3409 678.473 97.4091 677.791 96.6136C677.132 95.7955 676.041 95.0682 674.518 94.4318C672.996 93.7727 670.939 93.1591 668.348 92.5909L661.393 91.0909C655.212 89.75 650.337 87.5114 646.768 84.375C643.223 81.2159 641.462 76.9091 641.484 71.4545C641.462 67.0227 642.643 63.1477 645.03 59.8295C647.439 56.4886 650.768 53.8864 655.018 52.0227C659.291 50.1591 664.189 49.2273 669.712 49.2273C675.348 49.2273 680.223 50.1705 684.337 52.0568C688.45 53.9432 691.621 56.6023 693.848 60.0341C696.098 63.4432 697.234 67.4318 697.257 72H679.121Z" fill="#EDEDED"/>
</svg>
